<?xml version="1.0" standalone="no"?>
<!DOCTYPE svg PUBLIC "-//W3C//DTD SVG 20010904//EN"
 "http://www.w3.org/TR/2001/REC-SVG-20010904/DTD/svg10.dtd">
<svg version="1.0" xmlns="http://www.w3.org/2000/svg"
 width="225.000000pt" height="225.000000pt" viewBox="0 0 225.000000 225.000000"
 preserveAspectRatio="xMidYMid meet">
<g transform="translate(0.000000,225.000000) scale(0.100000,-0.100000)"
fill="#000000" stroke="none">
<path d="M938 2040 c-61 -11 -149 -36 -218 -62 -84 -32 -181 -88 -173 -100 3
-7 1 -8 -6 -4 -6 4 -38 -13 -74 -43 -373 -296 -492 -835 -278 -1260 41 -83 71
-108 114 -97 34 8 67 44 67 72 0 11 -18 60 -40 106 -151 323 -89 720 151 969
153 157 322 242 542 269 265 34 570 -83 742 -284 26 -31 52 -53 58 -49 6 3 7
1 3 -5 -9 -15 23 -64 37 -55 6 3 7 1 3 -5 -4 -6 9 -42 28 -79 121 -241 121
-534 0 -775 -40 -80 -43 -116 -10 -147 26 -25 77 -31 101 -11 20 17 67 102 93
170 120 307 82 668 -100 948 -28 42 -87 113 -132 158 -149 147 -310 232 -531
279 -75 16 -295 19 -377 5z m372 -25 c19 -2 38 -4 43 -4 4 -1 8 -9 8 -18 1
-16 2 -16 6 0 5 18 5 18 19 0 7 -10 14 -13 14 -6 0 8 9 7 30 -3 16 -9 34 -13
40 -9 6 3 13 -1 16 -9 3 -9 17 -16 31 -16 13 0 21 -4 18 -10 -3 -5 0 -7 8 -4
16 6 136 -62 155 -88 7 -10 17 -16 22 -13 5 3 24 -8 41 -25 18 -16 37 -30 42
-30 6 0 8 -3 5 -6 -4 -3 7 -18 23 -33 17 -17 25 -31 19 -37 -6 -6 -5 -15 1
-24 9 -13 10 -12 5 3 -8 26 17 21 47 -11 22 -22 24 -31 14 -41 -10 -10 -9 -12
2 -9 8 2 20 -7 26 -19 7 -13 15 -20 20 -15 4 4 5 -3 2 -16 -4 -19 -2 -22 10
-18 14 6 14 4 2 -11 -8 -10 -9 -14 -2 -10 8 5 20 -7 34 -35 12 -24 22 -45 22
-48 -1 -7 10 -34 41 -102 16 -37 21 -58 14 -58 -9 0 -9 -3 0 -12 7 -7 12 -27
12 -44 0 -18 5 -36 10 -39 6 -3 10 -11 10 -16 0 -6 -4 -7 -10 -4 -14 9 -12 -9
2 -23 17 -17 17 -237 0 -254 -7 -7 -12 -17 -12 -23 0 -5 5 -3 10 5 8 12 10 11
10 -7 0 -13 -4 -23 -10 -23 -5 0 -7 -7 -4 -15 4 -8 0 -32 -9 -53 -8 -20 -13
-45 -12 -55 2 -9 -1 -17 -6 -17 -5 0 -9 -8 -9 -17 0 -10 -7 -31 -15 -47 -8
-15 -12 -32 -9 -37 3 -5 0 -8 -8 -7 -7 2 -13 -5 -13 -14 0 -10 -6 -23 -13 -30
-6 -6 -12 -16 -12 -21 0 -16 -35 -52 -50 -52 -32 1 -57 24 -58 52 0 16 -2 35
-4 43 -2 8 3 14 10 13 6 -2 13 3 14 10 3 26 5 33 21 67 12 25 15 28 11 10 -4
-22 -4 -23 7 -7 6 11 9 32 7 47 -3 17 0 26 5 23 5 -3 7 0 5 8 -3 8 0 25 7 39
31 65 41 250 21 375 -3 17 -8 46 -10 65 -10 61 -38 140 -49 133 -5 -3 -7 -1
-4 4 4 6 -2 22 -13 36 -11 14 -20 29 -20 34 0 4 5 1 10 -7 8 -12 9 -10 7 7 -2
12 -7 26 -12 30 -4 5 -5 2 -1 -4 4 -7 5 -13 3 -13 -2 0 -21 27 -42 60 -21 33
-42 60 -47 60 -6 0 -8 9 -5 20 3 10 2 18 -2 17 -11 -3 -61 40 -54 47 3 3 1 6
-6 6 -7 0 -9 5 -5 12 4 7 3 8 -4 4 -15 -9 -84 45 -78 60 3 8 -3 10 -17 6 -12
-3 -19 -1 -15 3 5 5 -2 13 -15 20 -12 6 -21 16 -20 22 1 6 -9 10 -22 8 -13 -1
-22 2 -19 6 3 5 -2 9 -11 9 -9 0 -13 5 -9 11 4 8 -1 9 -16 4 -15 -5 -20 -4
-16 4 4 6 0 11 -11 11 -10 0 -28 7 -39 15 -12 8 -24 12 -26 9 -3 -2 -27 4 -54
14 -27 11 -55 17 -63 14 -8 -3 -11 0 -7 6 4 6 -1 11 -11 11 -10 0 -69 3 -131
8 -63 5 -116 5 -118 1 -2 -4 -13 -5 -24 -3 -11 2 -20 0 -20 -5 0 -5 -16 -7
-36 -4 -20 2 -42 0 -49 -6 -7 -6 -21 -12 -31 -15 -11 -2 -28 -6 -39 -10 -16
-6 -17 -5 -5 4 23 17 8 13 -32 -8 -21 -10 -35 -21 -32 -23 3 -3 -2 -8 -11 -12
-9 -3 -13 -2 -10 4 10 16 0 12 -25 -10 -14 -12 -37 -20 -58 -20 -31 0 -33 -2
-21 -17 8 -9 9 -14 3 -10 -6 4 -19 -2 -29 -13 -15 -16 -21 -18 -33 -7 -13 10
-14 9 -8 -1 4 -7 1 -15 -8 -18 -9 -3 -13 -10 -10 -15 3 -5 0 -9 -6 -9 -17 0
-61 -36 -53 -44 3 -3 -1 -6 -10 -6 -9 0 -19 -5 -23 -12 -5 -7 -2 -8 7 -3 8 5
3 -4 -10 -18 -18 -20 -27 -24 -33 -15 -5 9 -8 6 -8 -8 0 -26 -57 -99 -75 -98
-8 1 -11 -5 -8 -14 4 -10 2 -13 -5 -8 -6 3 -13 2 -16 -3 -4 -5 -1 -13 5 -17 8
-5 9 -3 4 6 -5 9 -4 11 4 6 8 -5 9 -12 3 -19 -20 -24 -52 -88 -52 -102 0 -8
-4 -15 -9 -15 -5 0 -11 -9 -14 -20 -3 -11 0 -20 6 -20 8 0 7 -3 -2 -9 -24 -16
-67 -318 -48 -338 4 -3 7 -22 7 -42 0 -20 7 -61 15 -91 18 -66 17 -63 5 -55
-6 3 -7 -1 -4 -9 3 -9 10 -13 15 -10 5 3 12 -9 15 -26 4 -17 10 -33 15 -36 4
-2 5 -12 2 -21 -5 -12 -3 -14 7 -8 8 5 11 4 7 -2 -4 -6 3 -23 15 -39 13 -16
16 -25 8 -20 -12 6 -11 4 1 -6 19 -16 20 -84 2 -81 -7 2 -13 -2 -13 -7 0 -15
-66 -12 -79 3 -6 8 -8 17 -4 20 3 4 1 7 -6 7 -8 0 -11 8 -8 19 3 14 1 18 -9
14 -10 -4 -12 0 -7 13 4 11 3 15 -4 11 -7 -5 -10 2 -9 18 2 13 0 22 -5 20 -12
-8 -42 81 -34 107 5 19 4 20 -5 8 -10 -12 -11 -11 -7 8 3 12 2 22 -2 22 -13 0
-30 69 -19 76 6 4 5 10 -3 16 -11 7 -11 11 -1 15 6 2 12 12 12 21 0 15 -2 15
-11 2 -8 -11 -9 2 -5 48 3 34 2 62 -3 62 -11 0 -4 106 11 178 6 28 16 52 21
52 5 0 3 8 -4 17 -12 15 -12 16 5 10 15 -6 17 -5 8 6 -7 8 -10 16 -8 18 3 3 7
17 10 33 3 16 10 34 16 40 5 5 10 18 10 29 0 10 4 15 10 12 5 -3 10 3 10 14 0
12 0 23 0 26 0 3 11 25 25 49 13 24 21 47 17 52 -4 5 1 2 11 -5 15 -12 17 -12
11 4 -5 12 -4 16 3 12 6 -4 10 1 9 11 0 9 4 16 11 15 7 -2 10 4 7 12 -4 8 -1
15 6 15 6 0 8 4 5 10 -3 5 5 19 19 31 14 12 23 27 19 32 -3 6 -1 7 5 3 7 -4
12 -2 12 4 0 5 24 32 52 59 40 37 56 47 66 39 10 -8 11 -7 5 7 -5 14 -3 17 10
12 11 -4 14 -2 11 7 -5 14 49 51 90 62 12 3 34 16 49 30 14 13 31 24 37 24 6
0 19 5 30 10 11 6 28 14 39 19 39 20 199 53 286 59 50 4 124 3 165 -1 41 -5
91 -10 110 -12z m-685 -105 c-3 -5 -12 -10 -18 -10 -7 0 -6 4 3 10 19 12 23
12 15 0z m1258 -1365 c4 -8 3 -16 -1 -19 -4 -3 -9 4 -9 15 -2 23 3 25 10 4z"/>
<path d="M890 1916 c7 -7 13 -7 20 0 6 6 3 10 -10 10 -13 0 -16 -4 -10 -10z"/>
<path d="M1630 1876 c0 -2 7 -7 16 -10 8 -3 12 -2 9 4 -6 10 -25 14 -25 6z"/>
<path d="M678 1823 c6 -2 18 -2 25 0 6 3 1 5 -13 5 -14 0 -19 -2 -12 -5z"/>
<path d="M1730 1810 c0 -5 5 -10 11 -10 5 0 7 5 4 10 -3 6 -8 10 -11 10 -2 0
-4 -4 -4 -10z"/>
<path d="M450 1785 c-11 -13 -10 -14 4 -9 9 3 16 10 16 15 0 13 -6 11 -20 -6z"/>
<path d="M447 1679 c7 -7 15 -10 18 -7 3 3 -2 9 -12 12 -14 6 -15 5 -6 -5z"/>
<path d="M1890 1655 c7 -8 17 -15 22 -15 5 0 3 7 -6 15 -8 8 -18 15 -22 15 -3
0 -1 -7 6 -15z"/>
<path d="M1860 1656 c0 -2 8 -10 18 -17 15 -13 16 -12 3 4 -13 16 -21 21 -21
13z"/>
<path d="M406 1617 c3 -10 9 -15 12 -12 3 3 0 11 -7 18 -10 9 -11 8 -5 -6z"/>
<path d="M1906 1517 c3 -10 9 -15 12 -12 3 3 0 11 -7 18 -10 9 -11 8 -5 -6z"/>
<path d="M1886 1495 c4 -8 8 -15 10 -15 2 0 4 7 4 15 0 8 -4 15 -10 15 -5 0
-7 -7 -4 -15z"/>
<path d="M246 1347 c3 -10 9 -15 12 -12 3 3 0 11 -7 18 -10 9 -11 8 -5 -6z"/>
<path d="M2103 1010 c0 -25 2 -35 4 -22 2 12 2 32 0 45 -2 12 -4 2 -4 -23z"/>
<path d="M2102 930 c0 -14 2 -19 5 -12 2 6 2 18 0 25 -3 6 -5 1 -5 -13z"/>
<path d="M1977 710 c3 -11 9 -22 13 -25 5 -3 6 4 3 15 -3 11 -9 22 -13 25 -5
3 -6 -4 -3 -15z"/>
<path d="M2000 651 c0 -6 4 -13 10 -16 6 -3 7 1 4 9 -7 18 -14 21 -14 7z"/>
<path d="M1745 1911 c-3 -5 -2 -12 3 -15 5 -3 9 1 9 9 0 17 -3 19 -12 6z"/>
<path d="M170 1571 c0 -6 4 -13 10 -16 6 -3 7 1 4 9 -7 18 -14 21 -14 7z"/>
<path d="M516 1521 c-101 -67 -55 -211 68 -211 44 0 101 47 110 91 7 39 -13
89 -49 117 -35 28 -90 28 -129 3z m104 -10 c14 -4 24 -14 24 -23 -1 -9 4 -14
11 -12 6 3 12 -1 12 -8 0 -7 3 -25 6 -39 5 -19 1 -32 -16 -50 -12 -13 -21 -26
-20 -29 2 -3 -7 -5 -20 -6 -12 0 -21 -6 -19 -12 3 -15 -15 -16 -24 -1 -3 6 0
15 7 20 11 7 11 9 1 9 -7 0 -15 -7 -18 -15 -5 -13 -9 -13 -22 -3 -13 11 -15
11 -8 -2 5 -8 -4 -2 -18 14 -33 37 -43 73 -27 99 7 11 8 16 2 13 -7 -5 -8 -1
-5 9 4 10 13 14 22 10 9 -3 13 -3 9 1 -4 4 -2 13 4 21 12 14 58 16 99 4z"/>
<path d="M1059 1525 c-37 -20 -63 -78 -54 -123 20 -107 167 -127 216 -30 27
52 17 98 -27 138 -39 34 -90 39 -135 15z m42 -19 c1 -6 1 -14 0 -18 0 -4 7 -4
16 -1 11 4 13 8 5 11 -19 6 -14 18 8 19 11 1 18 -2 15 -8 -4 -5 1 -9 10 -9 10
0 13 -5 9 -12 -6 -10 -5 -10 8 -1 12 11 17 8 28 -15 18 -37 22 -62 9 -62 -5 0
-7 -4 -4 -10 7 -11 -19 -53 -27 -45 -3 3 -12 -3 -22 -14 -26 -28 -89 -10 -116
34 -22 36 -25 50 -9 39 8 -5 9 -2 1 12 -13 23 11 74 34 74 8 0 13 4 10 8 -3 5
1 9 9 9 8 0 16 -5 16 -11z"/>
<path d="M1086 1468 c5 -8 2 -9 -10 -5 -9 4 -15 3 -11 -2 3 -6 14 -9 25 -8 14
1 16 4 8 14 -13 16 -22 17 -12 1z"/>
<path d="M1130 1360 c0 -5 5 -10 11 -10 5 0 7 5 4 10 -3 6 -8 10 -11 10 -2 0
-4 -4 -4 -10z"/>
<path d="M1584 1506 c-30 -30 -34 -40 -34 -84 0 -45 4 -53 35 -81 57 -50 138
-40 175 21 51 84 -5 178 -106 178 -28 0 -44 -8 -70 -34z m70 2 c-5 -10 -4 -10
6 -1 10 9 21 8 52 -8 33 -17 37 -23 27 -35 -9 -12 -9 -13 2 -9 19 7 23 -38 7
-68 -15 -29 -47 -57 -67 -58 -27 -2 -46 2 -52 13 -3 5 -12 8 -19 6 -8 -2 -19
11 -25 30 -6 18 -14 29 -18 26 -4 -4 -7 -3 -7 3 0 6 7 13 15 17 8 3 15 11 14
18 0 10 -2 10 -6 0 -2 -6 -9 -10 -14 -7 -5 4 -3 12 4 19 6 8 15 12 19 10 4 -2
10 1 14 7 4 8 3 9 -4 5 -7 -4 -12 -1 -12 6 0 7 10 18 23 24 31 16 50 17 41 2z"/>
<path d="M1676 1492 c-2 -4 4 -8 14 -8 10 0 16 4 14 8 -3 4 -9 8 -14 8 -5 0
-11 -4 -14 -8z"/>
<path d="M1666 1341 c-4 -5 3 -7 14 -4 23 6 26 13 6 13 -8 0 -17 -4 -20 -9z"/>
<path d="M745 1325 c-112 -30 -198 -104 -252 -214 -27 -55 -28 -61 -31 -253
l-3 -197 24 -6 c31 -8 91 22 133 67 53 56 76 114 83 208 4 58 12 95 24 113 20
32 73 67 100 67 15 0 17 12 17 115 0 131 4 127 -95 100z m55 -15 c0 -5 6 -10
13 -10 9 0 11 -22 9 -83 -3 -70 -7 -85 -23 -95 -14 -9 -25 -10 -42 -2 -19 10
-20 9 -5 -2 15 -13 14 -16 -13 -33 -16 -11 -29 -23 -29 -27 0 -5 -6 -8 -13 -8
-7 0 -13 -8 -14 -17 -1 -10 -3 -55 -6 -101 -2 -46 -9 -88 -16 -95 -6 -6 -11
-20 -11 -31 0 -23 -84 -116 -105 -116 -7 0 -15 -6 -17 -12 -4 -10 -10 -10 -32
0 -23 10 -26 15 -16 27 10 12 10 15 0 15 -9 0 -11 35 -8 148 3 133 5 151 27
185 12 21 20 45 17 53 -6 17 27 68 38 57 3 -3 6 1 6 10 0 9 9 22 20 29 11 7
20 18 20 25 0 12 14 18 35 13 5 -1 7 2 3 6 -10 9 47 44 81 51 13 2 32 8 40 13
21 12 41 12 41 0z m-299 -237 c-12 -20 -14 -14 -5 12 4 9 9 14 11 11 3 -2 0
-13 -6 -23z"/>
<path d="M720 1089 c0 -5 5 -7 10 -4 6 3 10 8 10 11 0 2 -4 4 -10 4 -5 0 -10
-5 -10 -11z"/>
<path d="M590 765 c-7 -9 -11 -17 -9 -20 3 -2 10 5 17 15 14 24 10 26 -8 5z"/>
<path d="M490 700 c-8 -5 -10 -10 -5 -10 6 0 17 5 25 10 8 5 11 10 5 10 -5 0
-17 -5 -25 -10z"/>
<path d="M860 1226 l0 -114 30 -7 c16 -3 41 -15 55 -27 47 -37 55 -66 55 -210
0 -184 24 -227 125 -228 90 0 115 49 115 225 0 138 10 178 54 213 15 11 40 24
56 27 l30 7 0 114 c0 130 6 125 -95 99 -33 -9 -84 -32 -113 -51 l-53 -35 -29
21 c-46 33 -131 67 -182 75 l-48 6 0 -115z m60 84 c-11 -8 -9 -9 11 -5 16 4
30 1 38 -8 6 -8 21 -13 31 -10 11 3 20 1 20 -4 0 -5 14 -17 30 -27 17 -9 28
-21 25 -26 -3 -5 0 -12 6 -16 8 -4 9 -3 5 5 -6 8 -1 10 17 6 16 -4 30 -1 41
10 9 9 16 14 16 11 0 -3 16 6 36 19 33 22 47 27 70 24 4 0 10 4 14 11 8 14 78
21 86 9 3 -5 -1 -9 -8 -10 -10 0 -10 -2 0 -6 8 -3 12 -29 12 -78 0 -62 -3 -76
-19 -84 -10 -6 -21 -7 -25 -4 -3 3 -6 1 -6 -7 0 -10 -3 -10 -14 -1 -11 9 -16
9 -22 0 -4 -8 -3 -9 4 -5 7 4 12 2 12 -3 0 -6 -7 -11 -15 -11 -8 0 -14 -4 -13
-8 2 -5 -10 -22 -25 -38 -28 -30 -29 -31 -31 -180 -4 -175 -3 -165 -18 -162
-7 2 -12 -5 -10 -14 2 -10 -3 -18 -9 -18 -7 0 -21 -8 -32 -18 -19 -16 -20 -16
-14 1 6 15 4 16 -13 7 -25 -13 -43 -13 -34 2 5 8 2 9 -10 5 -13 -5 -19 -1 -23
13 -3 11 -10 20 -15 20 -5 0 -6 5 -3 10 3 6 3 10 -2 10 -4 0 -8 39 -8 88 0 48
-3 112 -6 142 -4 30 -3 56 2 58 17 7 9 21 -8 15 -10 -3 -15 -2 -11 2 5 5 -1
14 -12 22 -11 8 -20 21 -20 29 0 8 -4 12 -10 9 -5 -3 -10 2 -10 11 0 10 -3 14
-7 11 -3 -4 -12 -2 -19 3 -6 6 -18 9 -25 8 -11 -2 -15 18 -19 85 -3 48 -4 91
-2 95 1 4 15 9 30 10 21 1 24 0 12 -8z"/>
<path d="M1204 1110 c0 -13 4 -16 10 -10 7 7 7 13 0 20 -6 6 -10 3 -10 -10z"/>
<path d="M1020 1111 c0 -6 4 -13 10 -16 6 -3 7 1 4 9 -7 18 -14 21 -14 7z"/>
<path d="M980 1080 c0 -6 7 -13 15 -17 24 -9 27 1 5 15 -13 8 -20 8 -20 2z"/>
<path d="M1245 1080 c-3 -5 -1 -10 4 -10 6 0 11 5 11 10 0 6 -2 10 -4 10 -3 0
-8 -4 -11 -10z"/>
<path d="M1400 1226 l0 -114 30 -7 c37 -8 76 -39 94 -73 7 -15 16 -65 19 -111
5 -56 14 -99 29 -130 42 -87 148 -169 187 -144 14 9 16 36 16 209 0 193 -1
201 -26 254 -31 66 -76 120 -134 160 -46 32 -150 70 -190 70 l-25 0 0 -114z
m65 81 c21 2 35 -1 35 -7 0 -6 5 -8 10 -5 6 4 17 1 25 -5 8 -7 15 -10 15 -6 0
4 11 -1 25 -10 14 -9 22 -20 19 -25 -3 -5 1 -6 9 -3 8 3 20 -3 28 -13 13 -16
12 -17 -3 -5 -10 8 -19 9 -22 3 -8 -12 2 -18 29 -17 22 1 60 -38 51 -53 -8
-13 4 -41 17 -41 7 0 7 4 -1 12 -15 15 -15 28 0 28 6 0 8 -3 5 -7 -4 -3 1 -15
10 -25 16 -18 16 -21 1 -49 -10 -16 -13 -29 -9 -29 5 0 12 7 15 16 9 24 15 15
25 -43 9 -46 15 -280 9 -328 -4 -30 -19 -35 -50 -19 -29 15 -37 33 -15 35 7 0
6 3 -3 6 -8 3 -28 17 -45 32 l-30 26 29 -32 c16 -18 27 -35 24 -39 -11 -10
-78 90 -74 109 3 10 0 14 -7 10 -6 -4 -8 1 -5 15 4 13 0 23 -8 26 -8 3 -14 10
-14 16 0 6 4 9 8 6 13 -8 -5 120 -22 151 -20 40 -77 88 -102 87 -21 -1 -22 3
-22 100 -1 56 1 96 4 90 3 -6 20 -9 39 -7z"/>
<path d="M1560 1230 c8 -5 20 -10 25 -10 6 0 3 5 -5 10 -8 5 -19 10 -25 10 -5
0 -3 -5 5 -10z"/>
<path d="M1700 1095 c-7 -9 -11 -17 -9 -20 3 -2 10 5 17 15 14 24 10 26 -8 5z"/>
<path d="M1561 1034 c0 -11 3 -14 6 -6 3 7 2 16 -1 19 -3 4 -6 -2 -5 -13z"/>
<path d="M441 473 c-12 -10 -24 -34 -27 -53 -13 -78 76 -121 131 -65 70 69
-28 179 -104 118z m84 -33 c41 -46 -20 -105 -66 -64 -23 21 -24 42 -2 66 21
24 45 23 68 -2z"/>
<path d="M610 410 c0 -64 3 -80 15 -80 10 0 15 10 15 30 0 25 4 30 24 30 22 0
56 32 56 52 0 21 -43 48 -75 48 l-35 0 0 -80z m75 30 c0 -8 -10 -16 -22 -18
-18 -3 -23 2 -23 18 0 16 5 21 23 18 12 -2 22 -10 22 -18z"/>
<path d="M747 484 c-4 -4 -7 -41 -7 -81 l0 -74 53 3 c57 3 68 23 12 23 -27 0
-35 4 -35 18 0 9 8 18 18 18 40 3 45 5 49 17 3 8 -7 12 -31 12 -29 0 -36 4
-36 19 0 16 8 20 38 23 20 2 37 8 37 13 0 12 -87 19 -98 9z"/>
<path d="M879 443 c-1 -27 -2 -61 -2 -78 -1 -20 4 -30 13 -30 11 0 14 11 12
43 -1 23 1 42 5 42 5 0 21 -20 36 -45 44 -69 58 -61 55 32 -2 50 -7 78 -15 81
-9 2 -13 -11 -13 -47 0 -27 -5 -53 -12 -57 -7 -4 -8 -3 -4 4 7 12 -51 102 -66
102 -4 0 -9 -21 -9 -47z"/>
<path d="M1120 410 c0 -64 3 -80 15 -80 11 0 15 12 15 45 0 28 -5 45 -12 45
-6 0 -8 3 -4 8 4 4 19 -6 32 -23 l24 -30 20 25 20 25 0 -47 c0 -37 4 -48 15
-48 13 0 15 13 13 77 -2 42 -7 78 -13 80 -5 1 -21 -13 -34 -33 l-24 -35 -21
35 c-33 59 -46 47 -46 -44z"/>
<path d="M1310 410 c0 -64 3 -80 15 -80 12 0 15 16 15 80 0 64 -3 80 -15 80
-12 0 -15 -16 -15 -80z"/>
<path d="M1388 484 c-5 -4 -8 -40 -8 -81 0 -60 3 -73 16 -73 13 0 15 9 12 50
-3 49 -3 50 15 27 9 -12 25 -34 34 -49 31 -50 43 -36 43 53 0 60 -3 80 -12 77
-17 -6 -22 -61 -8 -90 11 -22 10 -21 -12 3 -13 14 -34 40 -48 58 -14 18 -28
29 -32 25z"/>
<path d="M1547 483 c-4 -3 -7 -39 -7 -80 l0 -73 38 0 c50 0 82 32 82 82 0 28
-7 42 -26 57 -26 20 -74 28 -87 14z m67 -39 c31 -30 14 -84 -26 -84 -15 0 -18
9 -18 50 0 54 14 65 44 34z"/>
<path d="M1710 476 c-23 -29 -8 -60 38 -74 43 -14 56 -37 25 -45 -10 -2 -30 2
-45 10 -20 10 -29 10 -34 1 -20 -32 81 -52 111 -22 28 28 15 57 -32 74 -42 14
-56 34 -30 43 6 2 23 0 35 -5 32 -11 50 1 27 19 -25 17 -79 17 -95 -1z"/>
</g>
</svg>
